# xmcd
#
# Track frame offsets: 
#        150
#        17213
#        33917
#        56236
#        77527
#        105889
#        124265
#        143342
#        159414
#        183254
#        199684
#        217689
#        237236
#
# Disc length: 3429 seconds
#
# Revision: 0
# Processed by: cddbd v1.5.2PL0 Copyright (c) Steve Scherf et al.
# Submitted via: ExactAudioCopy v1.3
#
DISCID=9b0d630d
DTITLE=Guy Clark - Suwannee Springfest
DYEAR=2001
DGENRE=Folk
TTITLE0=Cold Dog Soup
TTITLE1=The Cape
TTITLE2=Baton Rouge
TTITLE3=Out in the Parking Lot
TTITLE4=Sis Draper
TTITLE5=Stuff That Works
TTITLE6=Home Grown Tomatoes
TTITLE7=Desperadoes Waiting for a Train
TTITLE8=Old Friends
TTITLE9=Soldier's Joy 1864
TTITLE10=LA Freeway
TTITLE11=South Coast of Texas
TTITLE12=Dublin Blues
EXTD=
EXTT0=
EXTT1=
EXTT2=
EXTT3=
EXTT4=
EXTT5=
EXTT6=
EXTT7=
EXTT8=
EXTT9=
EXTT10=
EXTT11=
EXTT12=
PLAYORDER=
